<svg width="129" height="54" viewBox="0 0 129 54" fill="none" xmlns="http://www.w3.org/2000/svg">
<rect x="1.5" y="1.5" width="50.9765" height="50.2564" stroke="#333333" stroke-width="3"/>
<rect x="30" y="10" width="29" height="35" fill="white"/>
<path d="M31.2158 34.5723V38H19.8633V34.5723H31.2158ZM21.2988 16.6719V38H16.9043V16.6719H21.2988ZM29.7363 25.3584V28.6982H19.8633V25.3584H29.7363ZM31.2012 16.6719V20.1143H19.8633V16.6719H31.2012ZM39.7705 34.9971C40.2881 34.9971 40.7471 34.8994 41.1475 34.7041C41.5479 34.499 41.8604 34.2158 42.085 33.8545C42.3193 33.4834 42.4414 33.0488 42.4512 32.5508H46.4209C46.4111 33.6641 46.1133 34.6553 45.5273 35.5244C44.9414 36.3838 44.1553 37.0625 43.1689 37.5605C42.1826 38.0488 41.0791 38.293 39.8584 38.293C38.6279 38.293 37.5537 38.0879 36.6357 37.6777C35.7275 37.2676 34.9707 36.7012 34.3652 35.9785C33.7598 35.2461 33.3057 34.3965 33.0029 33.4297C32.7002 32.4531 32.5488 31.4082 32.5488 30.2949V29.8701C32.5488 28.7471 32.7002 27.7021 33.0029 26.7354C33.3057 25.7588 33.7598 24.9092 34.3652 24.1865C34.9707 23.4541 35.7275 22.8828 36.6357 22.4727C37.5439 22.0625 38.6084 21.8574 39.8291 21.8574C41.1279 21.8574 42.2656 22.1064 43.2422 22.6045C44.2285 23.1025 45 23.8154 45.5566 24.7432C46.123 25.6611 46.4111 26.75 46.4209 28.0098H42.4512C42.4414 27.4824 42.3291 27.0039 42.1143 26.5742C41.9092 26.1445 41.6064 25.8027 41.2061 25.5488C40.8154 25.2852 40.332 25.1533 39.7559 25.1533C39.1406 25.1533 38.6377 25.2852 38.2471 25.5488C37.8564 25.8027 37.5537 26.1543 37.3389 26.6035C37.124 27.043 36.9727 27.5459 36.8848 28.1123C36.8066 28.6689 36.7676 29.2549 36.7676 29.8701V30.2949C36.7676 30.9102 36.8066 31.501 36.8848 32.0674C36.9629 32.6338 37.1094 33.1367 37.3242 33.5762C37.5488 34.0156 37.8564 34.3623 38.2471 34.6162C38.6377 34.8701 39.1455 34.9971 39.7705 34.9971ZM48.1934 30.2363V29.9287C48.1934 28.7666 48.3594 27.6973 48.6914 26.7207C49.0234 25.7344 49.5068 24.8799 50.1416 24.1572C50.7764 23.4346 51.5576 22.873 52.4854 22.4727C53.4131 22.0625 54.4775 21.8574 55.6787 21.8574C56.8799 21.8574 57.9492 22.0625 58.8867 22.4727C59.8242 22.873 60.6104 23.4346 61.2451 24.1572C61.8896 24.8799 62.3779 25.7344 62.71 26.7207C63.042 27.6973 63.208 28.7666 63.208 29.9287V30.2363C63.208 31.3887 63.042 32.458 62.71 33.4443C62.3779 34.4209 61.8896 35.2754 61.2451 36.0078C60.6104 36.7305 59.8291 37.292 58.9014 37.6924C57.9736 38.0928 56.9092 38.293 55.708 38.293C54.5068 38.293 53.4375 38.0928 52.5 37.6924C51.5723 37.292 50.7861 36.7305 50.1416 36.0078C49.5068 35.2754 49.0234 34.4209 48.6914 33.4443C48.3594 32.458 48.1934 31.3887 48.1934 30.2363ZM52.4121 29.9287V30.2363C52.4121 30.9004 52.4707 31.5205 52.5879 32.0967C52.7051 32.6729 52.8906 33.1807 53.1445 33.6201C53.4082 34.0498 53.75 34.3867 54.1699 34.6309C54.5898 34.875 55.1025 34.9971 55.708 34.9971C56.2939 34.9971 56.7969 34.875 57.2168 34.6309C57.6367 34.3867 57.9736 34.0498 58.2275 33.6201C58.4814 33.1807 58.667 32.6729 58.7842 32.0967C58.9111 31.5205 58.9746 30.9004 58.9746 30.2363V29.9287C58.9746 29.2842 58.9111 28.6787 58.7842 28.1123C58.667 27.5361 58.4766 27.0283 58.2129 26.5889C57.959 26.1396 57.6221 25.7881 57.2021 25.5342C56.7822 25.2803 56.2744 25.1533 55.6787 25.1533C55.083 25.1533 54.5752 25.2803 54.1553 25.5342C53.7451 25.7881 53.4082 26.1396 53.1445 26.5889C52.8906 27.0283 52.7051 27.5361 52.5879 28.1123C52.4707 28.6787 52.4121 29.2842 52.4121 29.9287ZM70.7227 16.6719L67.0312 38H65.2588L68.9502 16.6719H70.7227ZM78.6621 26.4863L78.3984 28.0391H68.1592L68.4229 26.4863H78.6621ZM81.7822 16.6719L81.5186 18.2246H69.8584L70.1221 16.6719H81.7822ZM90.6152 35.1582L91.9775 26.9697C92.085 26.2178 92.0166 25.5732 91.7725 25.0361C91.5381 24.4893 91.1572 24.0742 90.6299 23.791C90.1123 23.498 89.4727 23.3467 88.7109 23.3369C88.0371 23.3271 87.373 23.4443 86.7188 23.6885C86.0645 23.9326 85.4932 24.2891 85.0049 24.7578C84.5264 25.2266 84.209 25.8125 84.0527 26.5156L82.3389 26.501C82.4463 25.749 82.71 25.085 83.1299 24.5088C83.5498 23.9229 84.0674 23.4346 84.6826 23.0439C85.3076 22.6436 85.9814 22.3457 86.7041 22.1504C87.4268 21.9453 88.1396 21.8477 88.8428 21.8574C89.8877 21.8574 90.7959 22.0674 91.5674 22.4873C92.3389 22.8975 92.915 23.4883 93.2959 24.2598C93.6865 25.0215 93.8135 25.9395 93.6768 27.0137L92.3877 34.6748C92.2998 35.1924 92.2412 35.7197 92.2119 36.2568C92.1826 36.7842 92.2217 37.3018 92.3291 37.8096L92.3145 38H90.5273C90.459 37.5312 90.4346 37.0576 90.4541 36.5791C90.4834 36.1006 90.5371 35.627 90.6152 35.1582ZM92.0947 28.7715L91.9043 30.1191H88.667C88.0615 30.1191 87.4219 30.1729 86.748 30.2803C86.0742 30.3877 85.4297 30.5732 84.8145 30.8369C84.1992 31.1006 83.6768 31.4668 83.2471 31.9355C82.8174 32.3945 82.5439 32.9805 82.4268 33.6934C82.3291 34.3086 82.3975 34.8457 82.6318 35.3047C82.876 35.7539 83.2324 36.1055 83.7012 36.3594C84.1699 36.6035 84.6973 36.7305 85.2832 36.7402C86.1426 36.75 86.958 36.5938 87.7295 36.2715C88.501 35.9395 89.1895 35.4805 89.7949 34.8945C90.4004 34.3086 90.874 33.625 91.2158 32.8438L91.8164 33.8691C91.5527 34.5332 91.1816 35.1436 90.7031 35.7002C90.2344 36.2471 89.6973 36.7158 89.0918 37.1064C88.4863 37.4873 87.8369 37.7852 87.1436 38C86.4502 38.2051 85.7471 38.3076 85.0342 38.3076C84.165 38.2881 83.3838 38.0977 82.6904 37.7363C82.0068 37.375 81.4746 36.8623 81.0938 36.1982C80.7129 35.5342 80.5713 34.7529 80.6689 33.8545C80.7764 32.8975 81.0791 32.0967 81.5771 31.4521C82.085 30.7979 82.7148 30.2754 83.4668 29.8848C84.2188 29.4941 85.0293 29.2109 85.8984 29.0352C86.7676 28.8594 87.6123 28.7715 88.4326 28.7715H92.0947ZM102.334 36.7988C103.115 36.7988 103.838 36.6475 104.502 36.3447C105.166 36.042 105.728 35.6123 106.187 35.0557C106.655 34.499 106.992 33.8496 107.197 33.1074H108.853C108.657 34.1426 108.237 35.0508 107.593 35.832C106.948 36.6133 106.162 37.2236 105.234 37.6631C104.316 38.0928 103.335 38.3027 102.29 38.293C101.177 38.2832 100.244 38.0488 99.4922 37.5898C98.7402 37.1309 98.1494 36.5254 97.7197 35.7734C97.29 35.0117 97.002 34.167 96.8555 33.2393C96.7188 32.3018 96.7139 31.3545 96.8408 30.3975L96.9141 29.7822C97.0508 28.7666 97.3145 27.7852 97.7051 26.8379C98.0957 25.8809 98.6084 25.0264 99.2432 24.2744C99.8877 23.5225 100.654 22.9316 101.543 22.502C102.432 22.0625 103.433 21.8477 104.546 21.8574C105.649 21.8672 106.597 22.1211 107.388 22.6191C108.179 23.1074 108.779 23.7764 109.189 24.626C109.609 25.4658 109.8 26.4229 109.761 27.4971L108.135 27.4824C108.164 26.7207 108.042 26.0322 107.769 25.417C107.505 24.792 107.095 24.2988 106.538 23.9375C105.981 23.5664 105.303 23.3711 104.502 23.3516C103.594 23.3418 102.798 23.5225 102.114 23.8936C101.44 24.2549 100.864 24.748 100.386 25.373C99.9072 25.998 99.5215 26.6914 99.2285 27.4531C98.9355 28.2148 98.7305 28.9912 98.6133 29.7822L98.5254 30.3975C98.4375 31.1201 98.418 31.8574 98.4668 32.6094C98.5254 33.3516 98.6865 34.04 98.9502 34.6748C99.2236 35.2998 99.6338 35.8076 100.181 36.1982C100.728 36.5791 101.445 36.7793 102.334 36.7988ZM116.016 22.1504L113.276 38H111.562L114.302 22.1504H116.016ZM114.8 17.5801C114.81 17.248 114.932 16.9648 115.166 16.7305C115.4 16.4961 115.684 16.3789 116.016 16.3789C116.357 16.3691 116.636 16.4814 116.851 16.7158C117.075 16.9502 117.173 17.2334 117.144 17.5654C117.134 17.8877 117.007 18.166 116.763 18.4004C116.519 18.625 116.235 18.7373 115.913 18.7373C115.581 18.7471 115.308 18.6396 115.093 18.415C114.878 18.1904 114.78 17.9121 114.8 17.5801ZM123.691 15.5L119.81 38H118.096L121.978 15.5H123.691Z" fill="#666666"/>
</svg>
